<svg viewBox="575 327.4629 380 143.0742" width="5000" height="1882.5552631578944" xmlns="http://www.w3.org/2000/svg" xmlns:xlink="http://www.w3.org/1999/xlink" preserveAspectRatio="none"><defs></defs><style>.a6izo4zJpcolor {fill:#000000;fill-opacity:1;}.a6izo4zJpstrokeColor-str {stroke:#3F3F3F;stroke-opacity:1;}.aD6z1nYkhcolor {fill:#000000;fill-opacity:1;}.aD6z1nYkhstrokeColor-str {stroke:#3F3F3F;stroke-opacity:1;}</style><g opacity="1" transform="rotate(0 575 447.7465)">
<svg width="173.1388" height="22.7906" x="575" y="447.7465" version="1.1" preserveAspectRatio="none" viewBox="0.68 -29.88 228.59999999999997 30.08">
  <g transform="matrix(1 0 0 1 0 0)" class="a6izo4zJpcolor"><path id="id-6izo4zJp10" d="M10.92-27.48Q9.08-27.48 8.14-26.48Q7.20-25.48 7.20-23.52L7.20-23.52L7.20-21.04L13.68-21.04L13.68-18.64L7.28-18.64L7.28 0L4.44 0L4.44-18.64L0.68-18.64L0.68-21.04L4.44-21.04L4.44-23.64Q4.44-26.52 6.10-28.20Q7.76-29.88 10.80-29.88L10.80-29.88Q12-29.88 13.12-29.54Q14.24-29.20 15-28.56L15-28.56L14.04-26.44Q12.80-27.48 10.92-27.48L10.92-27.48Z M26.96 0.20Q23.92 0.20 21.48-1.18Q19.04-2.56 17.64-5Q16.24-7.44 16.24-10.52L16.24-10.52Q16.24-13.60 17.64-16.04Q19.04-18.48 21.48-19.84Q23.92-21.20 26.96-21.20L26.96-21.20Q30-21.20 32.44-19.84Q34.88-18.48 36.26-16.04Q37.64-13.60 37.64-10.52L37.64-10.52Q37.64-7.44 36.26-5Q34.88-2.56 32.44-1.18Q30 0.20 26.96 0.20L26.96 0.20ZM26.96-2.32Q29.20-2.32 30.98-3.34Q32.76-4.36 33.76-6.24Q34.76-8.12 34.76-10.52L34.76-10.52Q34.76-12.92 33.76-14.80Q32.76-16.68 30.98-17.70Q29.20-18.72 26.96-18.72L26.96-18.72Q24.72-18.72 22.94-17.70Q21.16-16.68 20.14-14.80Q19.12-12.92 19.12-10.52L19.12-10.52Q19.12-8.12 20.14-6.24Q21.16-4.36 22.94-3.34Q24.72-2.32 26.96-2.32L26.96-2.32Z M60.76-21.04L63.60-21.04L63.60 0L60.88 0L60.88-3.84Q59.76-1.92 57.80-0.86Q55.84 0.20 53.32 0.20L53.32 0.20Q49.20 0.20 46.82-2.10Q44.44-4.40 44.44-8.84L44.44-8.84L44.44-21.04L47.28-21.04L47.28-9.12Q47.28-5.80 48.92-4.08Q50.56-2.36 53.60-2.36L53.60-2.36Q56.92-2.36 58.84-4.38Q60.76-6.40 60.76-10L60.76-10L60.76-21.04Z M83.48-21.20Q87.44-21.20 89.78-18.90Q92.12-16.60 92.12-12.20L92.12-12.20L92.12 0L89.28 0L89.28-11.92Q89.28-15.20 87.64-16.92Q86.00-18.64 82.96-18.64L82.96-18.64Q79.56-18.64 77.58-16.62Q75.60-14.60 75.60-11.04L75.60-11.04L75.60 0L72.76 0L72.76-21.04L75.48-21.04L75.48-17.16Q76.64-19.08 78.70-20.14Q80.76-21.20 83.48-21.20L83.48-21.20Z M117.48-29.68L120.32-29.68L120.32 0L117.60 0L117.60-4.16Q116.32-2.04 114.22-0.92Q112.12 0.20 109.48 0.20L109.48 0.20Q106.52 0.20 104.12-1.16Q101.72-2.52 100.36-4.96Q99.00-7.40 99.00-10.52L99.00-10.52Q99.00-13.64 100.36-16.08Q101.72-18.52 104.12-19.86Q106.52-21.20 109.48-21.20L109.48-21.20Q112.04-21.20 114.10-20.14Q116.16-19.08 117.48-17.04L117.48-17.04L117.48-29.68ZM109.72-2.32Q111.92-2.32 113.70-3.34Q115.48-4.36 116.50-6.24Q117.52-8.12 117.52-10.52L117.52-10.52Q117.52-12.92 116.50-14.80Q115.48-16.68 113.70-17.70Q111.92-18.72 109.72-18.72L109.72-18.72Q107.48-18.72 105.70-17.70Q103.92-16.68 102.90-14.80Q101.88-12.92 101.88-10.52L101.88-10.52Q101.88-8.12 102.90-6.24Q103.92-4.36 105.70-3.34Q107.48-2.32 109.72-2.32L109.72-2.32Z M136.80-21.20Q140.92-21.20 143.12-19.14Q145.32-17.08 145.32-13.04L145.32-13.04L145.32 0L142.60 0L142.60-3.28Q141.64-1.64 139.78-0.72Q137.92 0.20 135.36 0.20L135.36 0.20Q131.84 0.20 129.76-1.48Q127.68-3.16 127.68-5.92L127.68-5.92Q127.68-8.60 129.62-10.24Q131.56-11.88 135.80-11.88L135.80-11.88L142.48-11.88L142.48-13.16Q142.48-15.88 140.96-17.30Q139.44-18.72 136.52-18.72L136.52-18.72Q134.52-18.72 132.68-18.06Q130.84-17.40 129.52-16.24L129.52-16.24L128.24-18.36Q129.84-19.72 132.08-20.46Q134.32-21.20 136.80-21.20L136.80-21.20ZM135.80-2.04Q138.20-2.04 139.92-3.14Q141.64-4.24 142.48-6.32L142.48-6.32L142.48-9.76L135.88-9.76Q130.48-9.76 130.48-6L130.48-6Q130.48-4.16 131.88-3.10Q133.28-2.04 135.80-2.04L135.80-2.04Z M164.32-3.32L165.32-1.28Q164.52-0.56 163.34-0.18Q162.16 0.20 160.88 0.20L160.88 0.20Q157.92 0.20 156.32-1.40Q154.72-3 154.72-5.92L154.72-5.92L154.72-18.64L150.96-18.64L150.96-21.04L154.72-21.04L154.72-25.64L157.56-25.64L157.56-21.04L163.96-21.04L163.96-18.64L157.56-18.64L157.56-6.08Q157.56-4.20 158.50-3.22Q159.44-2.24 161.20-2.24L161.20-2.24Q162.08-2.24 162.90-2.52Q163.72-2.80 164.32-3.32L164.32-3.32Z M171.68 0L171.68-21.04L174.52-21.04L174.52 0L171.68 0ZM173.12-25.64Q172.24-25.64 171.64-26.24Q171.04-26.84 171.04-27.68L171.04-27.68Q171.04-28.48 171.64-29.08Q172.24-29.68 173.12-29.68L173.12-29.68Q174-29.68 174.60-29.10Q175.20-28.52 175.20-27.72L175.20-27.72Q175.20-26.84 174.60-26.24Q174-25.64 173.12-25.64L173.12-25.64Z M192.24 0.20Q189.20 0.20 186.76-1.18Q184.32-2.56 182.92-5Q181.52-7.44 181.52-10.52L181.52-10.52Q181.52-13.60 182.92-16.04Q184.32-18.48 186.76-19.84Q189.20-21.20 192.24-21.20L192.24-21.20Q195.28-21.20 197.72-19.84Q200.16-18.48 201.54-16.04Q202.92-13.60 202.92-10.52L202.92-10.52Q202.92-7.44 201.54-5Q200.16-2.56 197.72-1.18Q195.28 0.20 192.24 0.20L192.24 0.20ZM192.24-2.32Q194.48-2.32 196.26-3.34Q198.04-4.36 199.04-6.24Q200.04-8.12 200.04-10.52L200.04-10.52Q200.04-12.92 199.04-14.80Q198.04-16.68 196.26-17.70Q194.48-18.72 192.24-18.72L192.24-18.72Q190.00-18.72 188.22-17.70Q186.44-16.68 185.42-14.80Q184.40-12.92 184.40-10.52L184.40-10.52Q184.40-8.12 185.42-6.24Q186.44-4.36 188.22-3.34Q190.00-2.32 192.24-2.32L192.24-2.32Z M220.64-21.20Q224.60-21.20 226.94-18.90Q229.28-16.60 229.28-12.20L229.28-12.20L229.28 0L226.44 0L226.44-11.92Q226.44-15.20 224.80-16.92Q223.16-18.64 220.12-18.64L220.12-18.64Q216.72-18.64 214.74-16.62Q212.76-14.60 212.76-11.04L212.76-11.04L212.76 0L209.92 0L209.92-21.04L212.64-21.04L212.64-17.16Q213.80-19.08 215.86-20.14Q217.92-21.20 220.64-21.20L220.64-21.20Z"/></g>
</svg>
</g><g opacity="1" transform="rotate(0 575 327.4629)">
<svg width="380" height="94.9607" x="575" y="327.4629" version="1.1" preserveAspectRatio="none" viewBox="4.6 -29.68 119.24000000000001 29.8">
  <g transform="matrix(1 0 0 1 0 0)" class="aD6z1nYkhcolor"><path id="id-D6z1nYkh6" d="M14.64-20.80Q17.44-20.80 19.74-19.46Q22.04-18.12 23.36-15.74Q24.68-13.36 24.68-10.36L24.68-10.36Q24.68-7.36 23.36-4.96Q22.04-2.56 19.74-1.22Q17.44 0.12 14.64 0.12L14.64 0.12Q11.40 0.12 8.92-1.62Q6.44-3.36 5.40-6.32L5.40-6.32L5.40 0L4.60 0L4.60-29.68L5.40-29.68L5.40-14.40Q6.44-17.32 8.94-19.06Q11.44-20.80 14.64-20.80L14.64-20.80ZM14.64-0.64Q17.24-0.64 19.36-1.88Q21.48-3.12 22.68-5.34Q23.88-7.56 23.88-10.36L23.88-10.36Q23.88-13.16 22.68-15.38Q21.48-17.60 19.36-18.82Q17.24-20.04 14.64-20.04L14.64-20.04Q12.04-20.04 9.92-18.82Q7.80-17.60 6.60-15.38Q5.40-13.16 5.40-10.36L5.40-10.36Q5.40-7.56 6.60-5.34Q7.80-3.12 9.92-1.88Q12.04-0.64 14.64-0.64L14.64-0.64Z M48.80-20.68L49.60-20.68L49.60 0L48.80 0L48.80-5.48Q47.88-2.84 45.72-1.36Q43.56 0.12 40.48 0.12L40.48 0.12Q36.48 0.12 34.24-2.10Q32-4.32 32-8.48L32-8.48L32-20.68L32.80-20.68L32.80-8.48Q32.80-4.68 34.80-2.66Q36.80-0.64 40.44-0.64L40.44-0.64Q44.32-0.64 46.56-3.06Q48.80-5.48 48.80-9.44L48.80-9.44L48.80-20.68Z M59.60 0L59.60-20.68L60.40-20.68L60.40 0L59.60 0ZM60-26.40Q59.56-26.40 59.26-26.72Q58.96-27.04 58.96-27.44L58.96-27.44Q58.96-27.88 59.26-28.18Q59.56-28.48 60-28.48L60-28.48Q60.40-28.48 60.72-28.18Q61.04-27.88 61.04-27.44L61.04-27.44Q61.04-27.04 60.72-26.72Q60.40-26.40 60-26.40L60-26.40Z M70.40 0L70.40-29.68L71.20-29.68L71.20 0L70.40 0Z M98.04-29.68L98.84-29.68L98.84 0L98.04 0L98.04-6.32Q97-3.36 94.52-1.62Q92.04 0.12 88.80 0.12L88.80 0.12Q86 0.12 83.70-1.22Q81.40-2.56 80.08-4.96Q78.76-7.36 78.76-10.36L78.76-10.36Q78.76-13.36 80.08-15.74Q81.40-18.12 83.70-19.46Q86-20.80 88.80-20.80L88.80-20.80Q92-20.80 94.50-19.06Q97-17.32 98.04-14.40L98.04-14.40L98.04-29.68ZM88.80-0.64Q91.40-0.64 93.52-1.88Q95.64-3.12 96.84-5.34Q98.04-7.56 98.04-10.36L98.04-10.36Q98.04-13.16 96.84-15.38Q95.64-17.60 93.52-18.82Q91.40-20.04 88.80-20.04L88.80-20.04Q86.20-20.04 84.08-18.82Q81.96-17.60 80.76-15.38Q79.56-13.16 79.56-10.36L79.56-10.36Q79.56-7.56 80.76-5.34Q81.96-3.12 84.08-1.88Q86.20-0.64 88.80-0.64L88.80-0.64Z M114.04-15.48Q118.84-15.48 121.34-13.38Q123.84-11.28 123.84-7.68L123.84-7.68Q123.84-4.12 121.42-2Q119 0.12 114.60 0.12L114.60 0.12Q111.48 0.12 108.88-0.98Q106.28-2.08 105-3.84L105-3.84L105.52-4.36Q106.72-2.72 109.16-1.68Q111.60-0.64 114.60-0.64L114.60-0.64Q118.68-0.64 120.86-2.52Q123.04-4.40 123.04-7.68L123.04-7.68Q123.04-11 120.80-12.86Q118.56-14.72 114.08-14.72L114.08-14.72L112.64-14.72L112.64-15.32L121.72-27.24L105.88-27.24L105.88-28L122.80-28L122.80-27.40L113.72-15.48L114.04-15.48Z"/></g>
</svg>
</g></svg>